<?xml version="1.0" encoding="utf-8"?>
<!-- Generator: Adobe Illustrator 16.0.0, SVG Export Plug-In . SVG Version: 6.00 Build 0)  -->
<!DOCTYPE svg PUBLIC "-//W3C//DTD SVG 1.1//EN" "http://www.w3.org/Graphics/SVG/1.1/DTD/svg11.dtd">
<svg version="1.1" id="Layer_1" xmlns="http://www.w3.org/2000/svg" xmlns:xlink="http://www.w3.org/1999/xlink" x="0px" y="0px"
	 width="400px" height="82px" viewBox="0 0 400 82" enable-background="new 0 0 400 82" xml:space="preserve">
<g>
	<g>
		<path fill="#333333" d="M245.686,60.977L245.686,60.977c-0.001-0.004-0.008-0.008-0.008-0.008s0,0,0.007,0
			c-0.585-0.59-1.406-0.955-2.333-0.955h-23.211l2.441-11.043h28.275c1.838,0,3.374-1.479,3.429-3.322
			c0.032-0.902-0.333-1.748-0.945-2.361c-3.806-3.857-7.616-7.719-11.431-11.578c0.008,0.011,0.012,0.014,0.018,0.021
			c-0.578-0.595-1.394-0.982-2.297-0.982l-20.33-0.021l-2.59-2.62l1.258-7.847h37.937c1.852,0,3.374-1.477,3.431-3.323
			c0.026-0.931-0.329-1.769-0.917-2.37c-3.806-3.852-7.616-7.703-11.413-11.549c-0.002-0.004-0.006-0.007-0.007-0.01
			c-0.005-0.006-0.011-0.01-0.015-0.012c0,0.002,0.004,0.002,0.006,0.004c-0.582-0.589-1.396-0.955-2.315-0.955h-40.288
			c-0.28,0-0.532,0.097-0.806,0.167c-0.185,0.028-0.37,0.049-0.638,0.15c-0.808,0.306-1.447,0.912-1.796,1.714
			c-0.262,0.507-0.469,1.046-0.482,1.648l0.013,0.421l-1.043,6.472c-3.145-3.191-6.301-6.375-9.44-9.561c0,0,0,0-0.002,0
			c-0.004-0.007-0.009-0.013-0.009-0.018c0,0.002,0,0.006,0,0.008c-0.602-0.612-1.445-1.001-2.367-1.001h-45.008
			c-1.849,0-3.477,1.558-3.539,3.407c-0.025,0.915,0.345,1.734,0.936,2.337c0-0.01-0.006-0.015-0.013-0.02l11.434,11.577
			c0.61,0.616,1.471,1.003,2.41,1.003h5.074l-3.203,20.445l7.438,7.526l-3.688,17.18c-0.23,1.039,0.104,2.057,0.785,2.75l0,0
			c3.812,3.855,7.621,7.713,11.436,11.57c0.411,0.422,0.957,0.717,1.583,0.834c0.184,0.031,0.381,0.047,0.556,0.047
			c1.465,0,2.794-1.039,3.111-2.521l8.661-40.263l-8.595-8.699l1.387-8.869h19.813l-3.044,18.916l7.398,7.49l-3.541,16.033
			c-0.014,0.049-0.215,1.004-0.092,1.383c0.095,0.717,0.445,1.354,0.988,1.816c-0.066-0.053-0.129-0.094-0.182-0.15l11.432,11.572
			c0.415,0.42,0.958,0.713,1.595,0.82c0.066,0.012,4.715,0.018,10.879,0.018c12.333,0,29.832-0.018,30.754-0.018
			c1.855,0,3.39-1.469,3.446-3.318c0.029-0.934-0.321-1.77-0.916-2.369C253.303,68.688,249.498,64.832,245.686,60.977z"/>
		<path fill="#333333" d="M304.23,61.572c0.011,0.01,0.011,0.02,0.022,0.035c-0.585-0.605-1.39-0.99-2.312-0.99h-19.367
			l5.271-24.549l-8.581-8.688l1.813-11.62c0.156-1-0.179-1.942-0.821-2.597c-3.814-3.856-7.627-7.712-11.437-11.572
			c0.039,0.036,0.067,0.083,0.098,0.122c-0.465-0.523-1.105-0.894-1.865-0.988c-0.133-0.017-0.264-0.024-0.391-0.024
			c-1.545,0-2.923,1.145-3.165,2.708l-5.584,35.618l7.441,7.531l-3.683,17.135c-0.23,1.07,0.128,2.09,0.851,2.785
			c-0.021-0.02-0.041-0.031-0.062-0.047l11.43,11.572c0.175,0.176,0.36,0.324,0.571,0.451c0.215,0.162,0.493,0.25,0.767,0.326
			c0.106,0.012,0.171,0.082,0.271,0.1c0.084,0.018,0.17,0.006,0.363,0.039h37.311c1.86,0,3.387-1.465,3.447-3.312
			c0.028-0.953-0.338-1.83-0.96-2.459L304.23,61.572z M304.657,62.117c-0.052-0.078-0.112-0.15-0.17-0.225
			C304.545,61.967,304.605,62.039,304.657,62.117z M305.137,63.344c-0.016-0.08-0.045-0.158-0.07-0.238
			C305.092,63.186,305.121,63.264,305.137,63.344z M304.955,62.699c-0.035-0.088-0.083-0.164-0.126-0.248
			C304.872,62.535,304.92,62.611,304.955,62.699z"/>
		<path fill="#333333" d="M394.05,18.285c-3.814-3.856-7.625-7.714-11.435-11.576c0.012,0.012,0.027,0.029,0.032,0.042
			c-3.805-3.879-9.173-6.245-15.278-6.245c-9.81,0-18.112,6.124-21.256,14.827l-8.541-8.647c0.042,0.044,0.082,0.107,0.123,0.153
			c-0.081-0.098-0.164-0.199-0.253-0.273c-4.415-4.127-9.255-6.06-15.232-6.06c-11.864,0-21.827,9.812-22.196,21.864l-0.005,0.166
			c-0.192,6.226,2.251,11.836,6.312,15.796c-0.09-0.088-0.186-0.175-0.276-0.263c3.812,3.855,7.622,7.713,11.436,11.572
			c3.763,3.811,8.991,6.166,14.825,6.166c6.216,0,11.315-2.131,16.038-6.715c0.558-0.547,0.902-1.316,0.926-2.066
			c0.023-0.805-0.309-1.559-0.852-2.113l-11.421-11.557l0,0l-0.016-0.019c0.004,0.003,0.006,0.006,0.008,0.009
			c-0.534-0.544-1.273-0.89-2.078-0.89c-0.918,0-1.541,0.477-1.935,0.85c-3.659,3.368-7.456,5.005-11.599,5.005
			c-0.967,0-1.903-0.104-2.812-0.277c-0.275-1.304-0.419-2.669-0.377-4.092v-0.156c0.279-8.898,6.953-15.862,15.194-15.862
			c5.151,0,8.481,2.489,11.066,4.929c0.103,0.085,0.211,0.147,0.314,0.221c-0.042,6.079,2.33,11.471,6.263,15.288
			c-0.102-0.102-0.212-0.203-0.313-0.308l11.435,11.581c3.789,3.838,9.114,6.174,15.157,6.174c12.34,0,22.306-9.598,22.686-21.866
			v-0.156C400.177,27.655,397.909,22.199,394.05,18.285z M381.815,22.37l-0.006,0.166c-0.278,8.991-6.979,15.775-15.6,15.775
			c-0.989,0-1.947-0.105-2.879-0.281c-0.273-1.304-0.422-2.667-0.376-4.088v-0.156c0.28-9.04,6.953-15.862,15.513-15.862
			c1.016,0,2.002,0.101,2.957,0.291C381.706,19.536,381.861,20.922,381.815,22.37z M383.351,7.5
			c-0.098-0.114-0.207-0.221-0.314-0.334C383.144,7.278,383.253,7.386,383.351,7.5z"/>
		<path fill="#333333" d="M104.913,42.221c3.954,0,7.133,1.281,10.412,4.246c0.677,0.463,1.358,0.695,2.069,0.695
			c1.844,0,3.447-1.531,3.507-3.332c0.025-0.906-0.323-1.768-1.007-2.452l-11.43-11.578c0.066,0.07,0.112,0.147,0.175,0.213
			c-0.123-0.143-0.246-0.291-0.397-0.419c-3.113-2.653-7.254-5.347-14.514-5.347c-11.71,0-21.17,9.345-21.53,21.27
			c-0.028,0.73-0.011,1.449,0.03,2.158l-8.523-8.63l26.42-22.061c1.335-1.106,1.537-3.056,0.467-4.339
			c-0.059-0.066-0.113-0.129-0.176-0.192c-3.811-3.858-7.625-7.719-11.435-11.577c0.06,0.061,0.12,0.127,0.177,0.194
			C78.569,0.364,77.717,0,76.851,0c-0.712,0-1.435,0.245-2.031,0.743L37.671,31.755L27.79,21.751l0,0
			c-0.006-0.005-0.01-0.012-0.014-0.018c0.001,0.002,0.004,0.006,0.004,0.008c-0.474-0.482-1.117-0.797-1.834-0.883h13.917
			c1.758,0,3.229-1.447,3.284-3.221c0.028-0.89-0.313-1.69-0.879-2.265c0,0-11.43-11.571-11.43-11.569
			c-0.557-0.567-1.335-0.918-2.213-0.918H4.511c-1.805,0-3.391,1.554-3.446,3.394L0.001,40.978C-0.032,42.04,0.462,43,1.228,43.629
			c-0.087-0.07,11.169,11.35,11.169,11.35c0.585,0.596,1.391,0.967,2.274,0.967c1.882,0,3.453-1.523,3.509-3.389l0.424-13.826H31.89
			l8.98,9.086L18.795,64.949c-1.363,1.057-1.64,2.988-0.625,4.32c0.116,0.148,0.249,0.275,0.391,0.4
			c-0.052-0.049,7.469,7.586,11.28,11.449C30.414,81.703,31.198,82,31.991,82c0.668,0,1.36-0.217,1.941-0.666l38.801-30.115
			c0.909,4.141,2.947,7.703,5.831,10.371c-0.203-0.191,10.821,11.014,10.821,11.014c3.561,3.611,8.552,5.76,14.301,5.76
			c6.057,0,10.688-1.799,15.447-6.025c0.703-0.564,1.151-1.479,1.185-2.414c0.026-0.891-0.347-1.725-0.94-2.33l-11.408-11.551
			c0,0,0,0-0.002-0.002l-0.027-0.02c0,0,0.005,0.006,0.009,0.01c-0.58-0.594-1.382-0.977-2.252-0.977
			c-0.804,0-1.621,0.359-2.246,0.971c-3.483,3.08-6.654,4.365-10.888,4.365c-0.623,0-1.22-0.057-1.817-0.137
			c-0.172-1.016-0.242-2.07-0.209-3.16C90.803,48.562,96.979,42.221,104.913,42.221z"/>
	</g>
	<g>
		<g>
			<path fill="#71BF7F" d="M187.817,2.045c1.851,0,3.382,1.558,3.325,3.407c-0.06,1.839-1.678,3.317-3.534,3.317h-20.461
				l-3.458,22.106l10.661-4.529l-8.648,40.256c-0.326,1.49-1.654,2.525-3.117,2.525c-0.183,0-0.374-0.02-0.56-0.051
				c-1.663-0.301-2.724-1.908-2.366-3.576l6.219-28.946l-9.968,4.24l5.013-32.025h-18.321c-1.845,0-3.38-1.478-3.33-3.317
				c0.062-1.849,1.69-3.407,3.539-3.407H187.817z"/>
		</g>
		<g>
			<path fill="#6AC4C1" d="M244.675,2.045c1.847,0,3.281,1.478,3.227,3.312c-0.058,1.85-1.587,3.326-3.429,3.326h-37.935
				l-3.359,20.895l10.654-4.381l-1.22,5.53l27.018,0.021c1.836,0,3.281,1.562,3.223,3.329c-0.06,1.836-1.593,3.313-3.428,3.313
				h-28.279l-4.999,22.624h37.204c1.855,0,3.301,1.465,3.242,3.326c-0.058,1.844-1.592,3.312-3.447,3.312
				c-0.919,0-18.418,0.021-30.749,0.021c-6.172,0-10.809-0.002-10.878-0.021c-1.331-0.227-2.242-1.246-2.404-2.482
				c-0.123-0.379,0.078-1.334,0.092-1.383l6.099-27.621l-9.957,4.098l5.329-33.119l-0.013-0.421c0.013-0.603,0.22-1.142,0.482-1.648
				c0.349-0.802,0.988-1.408,1.796-1.714c0.268-0.101,0.453-0.123,0.638-0.15c0.273-0.069,0.525-0.167,0.806-0.167H244.675z"/>
		</g>
		<g>
			<path fill="#FF4A52" d="M266.662,0.701c0.127,0,0.258,0.008,0.391,0.024c1.7,0.21,2.852,1.756,2.59,3.461l-3.879,24.842
				l10.648-4.532l-7.757,36.121h33.286c1.866,0,3.301,1.561,3.244,3.41s-1.583,3.318-3.444,3.318h-37.313
				c-0.189-0.031-0.275-0.025-0.362-0.043c-0.099-0.018-0.167-0.084-0.269-0.102c-0.276-0.076-0.553-0.16-0.769-0.314
				c-1.054-0.656-1.639-1.891-1.356-3.193l6.208-28.897l-9.967,4.232l5.584-35.618C263.739,1.846,265.117,0.701,266.662,0.701z"/>
		</g>
		<g>
			<path fill="#E5B200" d="M322.21,0.506c5.978,0,10.817,1.933,15.232,6.06c0.487,0.425,0.995,1.25,0.965,2.321
				c-0.059,1.744-1.517,3.157-3.265,3.157c-0.771,0-1.54-0.279-2.125-0.769c-2.585-2.436-5.922-4.928-11.068-4.928
				c-8.244,0-14.92,6.962-15.195,15.858l-0.001,0.164c-0.276,8.938,6.146,15.94,14.624,15.94c4.143,0,7.939-1.637,11.599-5.005
				c0.394-0.373,1.017-0.85,1.935-0.85c1.61,0,2.971,1.399,2.923,2.994c-0.021,0.75-0.364,1.52-0.923,2.071
				c-4.723,4.578-9.824,6.706-16.037,6.706c-11.866,0-21.23-9.731-20.864-21.691l0.005-0.166
				C300.383,10.317,310.346,0.506,322.21,0.506z"/>
		</g>
		<g>
			<path fill="#71BF7F" d="M367.369,0.506c12.257,0,21.559,9.542,21.186,21.7l-0.002,0.164
				c-0.378,12.261-10.342,21.857-22.686,21.857c-12.199,0-21.473-9.527-21.101-21.691l0.008-0.166
				C345.15,10.111,355.078,0.506,367.369,0.506z M381.81,22.535l0.006-0.166c0.271-8.983-6.217-16.022-14.785-16.022
				c-8.557,0-15.227,6.818-15.506,15.858l-0.004,0.164c-0.276,8.938,6.182,15.94,14.689,15.94
				C374.83,38.31,381.531,31.526,381.81,22.535"/>
		</g>
		<g>
			<path fill="#6AC4C1" d="M28.624,2.885c1.764,0,3.144,1.418,3.087,3.174c-0.056,1.772-1.525,3.229-3.284,3.229H7.719L7.367,20.822
				h18.208c1.747,0,3.134,1.417,3.077,3.168c-0.05,1.744-1.524,3.162-3.27,3.162H7.169L6.745,40.978
				c-0.055,1.864-1.624,3.397-3.503,3.397c-1.812,0-3.297-1.566-3.24-3.397L1.065,6.279c0.055-1.84,1.641-3.394,3.446-3.394H28.624z
				"/>
		</g>
		<g>
			<path fill="#FF4A52" d="M76.851,0c0.866,0,1.719,0.364,2.307,1.072c1.067,1.284,0.866,3.231-0.464,4.342l-34.46,28.77
				l18.76,4.144L22.499,69.76c-0.579,0.447-1.271,0.67-1.942,0.67c-0.905,0-1.8-0.4-2.386-1.16c-1.016-1.332-0.739-3.264,0.625-4.32
				l30.121-23.376l-18.19-4.022L74.819,0.743C75.416,0.245,76.139,0,76.851,0z"/>
		</g>
		<g>
			<path fill="#E5B200" d="M93.728,24.248c7.26,0,11.401,2.694,14.514,5.347c0.827,0.714,1.254,1.659,1.226,2.655
				c-0.059,1.808-1.664,3.334-3.508,3.334c-0.71,0-1.39-0.224-2.073-0.689c-3.278-2.974-6.452-4.245-10.406-4.245
				c-7.934,0-14.116,6.335-14.375,14.868c-0.255,8.342,5.653,14.873,13.459,14.873c4.234,0,7.405-1.285,10.888-4.365
				c0.625-0.611,1.442-0.971,2.246-0.971c1.753,0,3.239,1.537,3.18,3.291c-0.024,0.939-0.474,1.85-1.177,2.416
				c-4.764,4.234-9.389,6.027-15.457,6.027c-11.801,0-20.424-9.092-20.047-21.271C72.558,33.593,82.017,24.248,93.728,24.248z"/>
		</g>
	</g>
</g>
</svg>
